<svg width="216" height="216" viewBox="0 0 216 216" fill="none" xmlns="http://www.w3.org/2000/svg">
<path fill-rule="evenodd" clip-rule="evenodd" d="M3.21729 46.5806H212.783V169.419H3.21729V46.5806Z" fill="black" stroke="black" stroke-width="0.89647" stroke-miterlimit="2.613"/>
<path fill-rule="evenodd" clip-rule="evenodd" d="M47.8941 107.425H28.6884C27.2663 107.425 27.2663 107.425 27.2663 108.465V147.177C27.2394 147.15 27.2394 147.177 27.2114 147.205V147.232C27.2394 147.45 27.486 148.079 28.3062 148.079H37.6082C38.5114 148.079 38.5114 148.079 38.5114 147.259V139.462C38.5114 138.396 38.5114 138.23 39.5513 138.23H47.8952C52.3272 138.04 53.422 136.999 53.422 131.965V112.65C53.4197 108.355 52.326 107.425 47.8941 107.425ZM42.1758 131.446C42.1208 132.65 41.2188 133.251 40.3425 133.251C39.4124 133.251 38.5092 132.622 38.5092 131.336V113.69C38.5092 112.487 39.4124 111.857 40.3425 111.857C41.2726 111.857 42.1758 112.487 42.1758 113.772V131.446ZM83.7059 108.355C83.7059 107.425 83.5142 107.725 82.6659 107.425H73.4738C72.4619 107.425 72.4619 107.425 72.4619 108.355L72.435 140.393C72.435 143.538 68.8782 143.457 68.8782 140.393V108.355C68.8782 107.425 68.8782 107.425 67.9482 107.425H58.3458C57.2241 107.425 57.2241 107.425 57.2241 108.355V142.252C57.2241 147.259 58.3458 148.079 61.4095 148.079H79.1921C82.6671 148.079 83.8157 147.149 83.7059 142.552V108.355ZM123.759 107.425H92.0766C88.3014 107.425 87.1797 108.355 87.1797 112.049V147.259C87.1797 148.079 87.1797 148.079 88.3014 148.079H97.1932C98.4248 148.079 98.4248 148.079 98.4248 147.259V114.101C98.4248 111.2 101.98 110.9 101.98 114.101V147.259C101.98 148.079 101.98 148.079 103.322 148.079H112.186C113.225 148.079 113.225 148.079 113.225 147.259V114.101C113.225 111.365 116.782 111.2 116.782 114.101V147.259C116.782 148.079 116.782 148.079 117.903 148.079H127.014C128.025 148.079 128.025 148.079 128.025 147.259V111.83C128.025 108.355 126.905 107.425 123.759 107.425ZM154.508 107.425H136.535C133.552 107.425 132.321 108.355 132.321 111.857V147.259C132.321 148.079 132.321 148.079 133.552 148.079H142.445C143.568 148.079 143.568 148.079 143.568 147.259V139.353C143.677 138.12 144.498 137.492 145.345 137.464C146.249 137.437 147.15 138.093 147.15 139.461V147.258C147.15 148.078 147.15 148.078 148.273 148.078H157.492C158.396 148.078 158.396 148.078 158.396 147.258V111.83C158.395 108.355 157.465 107.425 154.508 107.425ZM147.149 131.446C147.149 132.541 146.247 133.088 145.344 133.06C144.469 133.06 143.567 132.514 143.567 131.446V114.101C143.567 112.897 144.469 112.322 145.344 112.322C146.248 112.349 147.149 112.952 147.149 114.101V131.446ZM168.244 141.732H168.161C165.509 141.732 163.32 143.92 163.32 146.63C163.32 149.282 165.509 151.472 168.161 151.472H168.244C169.523 151.464 170.748 150.951 171.65 150.043C172.552 149.136 173.058 147.909 173.059 146.63C173.06 145.345 172.556 144.111 171.655 143.195C170.754 142.278 169.529 141.753 168.244 141.732ZM172.074 147.041C171.772 149.092 170.159 150.461 168.244 150.488C167.723 150.488 167.204 150.405 166.683 150.215C165.071 149.421 164.166 148.053 164.304 146.247C164.604 144.058 166.383 142.69 168.244 142.718C169.31 142.718 170.378 143.156 171.199 144.141C171.855 145.07 172.128 145.865 172.074 147.041Z" fill="white"/>
<path fill-rule="evenodd" clip-rule="evenodd" d="M169.802 146.712C170.158 146.383 170.349 145.945 170.349 145.428C170.349 144.961 170.13 144.552 169.692 144.25C169.273 143.934 168.768 143.753 168.243 143.73H166.135L166.109 149.557H167.066L167.041 147.288H167.778L168.244 147.916L169.475 149.53H170.405L168.599 147.233C169.01 147.233 169.42 147.013 169.802 146.712ZM168.051 146.547H167.066L167.041 144.359H168.051C168.134 144.359 168.189 144.385 168.244 144.385C168.545 144.414 168.846 144.522 169.036 144.687C169.284 144.88 169.448 145.179 169.448 145.427C169.448 145.754 169.31 146 169.036 146.219C168.815 146.411 168.537 146.526 168.244 146.547H168.051ZM198.801 66.0598C197.954 64.6915 196.12 65.1028 193.906 66.1696C191.032 67.4011 185.862 73.1464 184.604 76.3468C183.481 80.9434 180.854 85.1837 176.587 89.7524C172.293 93.2542 164.658 91.8591 160.256 89.0688C159.982 89.0688 141.897 74.9797 141.897 74.9797C135.414 69.8642 130.899 67.6476 125.453 66.991C125.18 66.8274 124.935 66.554 124.854 66.3623C124.004 64.4741 123.841 64.6389 123.239 64.1738C122.528 64.7207 122.006 65.0221 121.296 65.2406C120.968 65.2406 120.913 65.2406 120.722 65.1308C120.284 64.9392 119.818 64.5559 119.354 64.5291C118.807 64.6389 118.369 65.7326 117.629 66.8274C117.629 66.8274 116.371 67.9222 115.225 68.8792C114.784 69.2624 114.731 69.8642 114.43 70.2194C113.828 70.8761 113.117 71.9429 113.007 71.9429C112.734 72.7093 112.624 73.3929 113.117 73.7481C113.117 74.5964 113.555 74.8149 113.719 75.0065C113.854 75.28 113.882 75.3898 114.073 75.5814C114.401 75.7181 114.674 75.773 115.005 75.8548C116.754 77.4685 117.465 77.4416 119.49 77.1682C122.991 77.4147 122.691 78.5913 122.608 80.3686C122.39 80.642 122.335 80.6151 122.089 80.7518C120.528 80.7518 118.888 80.3966 117.329 80.3966C113.908 80.698 110.954 81.2998 111.228 85.4303C111.446 87.0439 114.375 89.2873 115.907 86.2505C116.126 84.8554 117.301 85.484 118.314 85.8124C124.443 88.4659 129.338 89.8342 132.595 87.0708C133.58 85.8393 134.182 86.7156 135.195 87.454C140.12 93.3091 147.177 97.1113 158.038 97.248C161.65 98.1512 164.413 99.655 165.781 103.212C169.145 111.829 173.413 118.779 179.679 122.417C179.158 127.861 179.376 132.376 184.877 133.554C186.326 132.376 184.301 130.598 185.972 126.604C185.834 124.826 184.302 123.376 183.783 119.984C177.381 114.73 180.089 112.57 179.133 109.068C179.05 103.952 177.929 100.039 175.767 96.1554C175.521 95.5256 175.93 95.0606 176.506 94.7323C180.118 92.0238 182.087 89.3702 182.963 86.7985C184.302 82.2299 186.575 78.6462 189.803 76.0745C192.539 73.886 195.137 73.2024 198.091 71.2593C199.924 68.2483 199.651 67.428 198.801 66.0598Z" fill="white"/>
</svg>
