<svg width="216" height="216" viewBox="0 0 216 216" fill="none" xmlns="http://www.w3.org/2000/svg">
<g clip-path="url(#clip0_45_57)">
<path d="M107.424 161.568C107.424 155.772 112.077 151.128 117.882 151.128C123.678 151.128 128.322 155.772 128.322 161.568C128.327 162.941 128.06 164.301 127.537 165.57C127.014 166.839 126.246 167.993 125.275 168.964C124.305 169.935 123.152 170.705 121.884 171.229C120.615 171.753 119.255 172.021 117.882 172.017C116.508 172.023 115.147 171.757 113.877 171.235C112.607 170.712 111.452 169.944 110.48 168.974C109.508 168.003 108.738 166.85 108.213 165.581C107.689 164.311 107.42 162.941 107.424 161.568ZM149.94 161.577C149.94 155.772 154.593 151.119 160.389 151.119C166.185 151.119 170.838 155.772 170.838 161.568C170.838 167.364 166.185 172.017 160.398 172.017C159.024 172.023 157.663 171.757 156.393 171.235C155.123 170.712 153.968 169.944 152.996 168.974C152.024 168.003 151.254 166.85 150.729 165.581C150.205 164.311 149.936 162.95 149.94 161.577ZM51.39 161.577C51.39 155.772 56.043 151.119 61.839 151.119C67.635 151.119 72.279 155.772 72.279 161.568C72.279 167.364 67.635 172.017 61.839 172.017C60.4662 172.022 59.1061 171.755 57.8368 171.232C56.5675 170.709 55.4141 169.941 54.443 168.97C53.4719 168 52.7023 166.847 52.1783 165.578C51.6543 164.31 51.3864 162.95 51.39 161.577ZM8.874 161.577C8.874 155.772 13.527 151.119 19.323 151.119C25.119 151.119 29.772 155.772 29.772 161.568C29.7768 162.941 29.5097 164.302 28.9863 165.572C28.4629 166.842 27.6934 167.996 26.7222 168.967C25.7509 169.938 24.5972 170.708 23.3273 171.231C22.0574 171.755 20.6965 172.022 19.323 172.017C17.951 172.021 16.5918 171.753 15.3236 171.23C14.0553 170.706 12.903 169.937 11.9329 168.967C10.9627 167.997 10.1938 166.845 9.67044 165.576C9.14705 164.308 8.87044 162.949 8.874 161.577ZM94.833 143.109H85.743V179.676H94.833V143.109ZM29.7 179.676H38.79V143.109H29.7V146.043C26.5314 143.838 22.7604 142.662 18.9 142.677C8.442 142.677 0 151.119 0 161.577C0 172.089 8.442 180.468 18.9 180.468C22.905 180.468 26.622 179.253 29.7 177.102V179.676ZM170.766 179.676H179.856V143.109H170.766V146.043C167.597 143.838 163.826 142.662 159.966 142.677C149.508 142.677 141.066 151.119 141.066 161.577C141.058 164.061 141.541 166.522 142.488 168.818C143.435 171.114 144.827 173.201 146.584 174.957C148.34 176.713 150.427 178.104 152.724 179.05C155.021 179.995 157.482 180.477 159.966 180.468C163.971 180.468 167.688 179.253 170.766 177.102V179.676ZM183.222 167.796C183.51 175.176 189.81 180.396 200.322 180.396C208.917 180.396 216 176.67 216 168.444C216 162.72 212.778 159.354 205.335 157.914L199.539 156.78C195.813 156.06 193.239 155.34 193.239 153.126C193.239 150.696 195.741 149.616 198.891 149.616C203.481 149.616 205.335 151.911 205.479 154.629H214.641C214.137 147.474 208.413 142.677 199.179 142.677C189.666 142.677 184.005 147.897 184.005 154.701C184.005 162.999 190.737 164.358 196.533 165.438L201.33 166.293C204.768 166.941 206.271 167.94 206.271 169.947C206.271 171.738 204.552 173.52 200.466 173.52C194.526 173.52 192.6 170.442 192.528 167.796H183.222ZM72.216 130.653V146.043C69.0474 143.838 65.2764 142.662 61.416 142.677C50.958 142.677 42.516 151.119 42.516 161.577C42.516 172.089 50.958 180.468 61.416 180.468C65.412 180.468 69.138 179.253 72.216 177.102V179.676H81.306V130.653H72.216ZM128.25 130.653V146.043C125.081 143.838 121.31 142.662 117.45 142.677C107.001 142.677 98.55 151.119 98.55 161.577C98.5417 164.061 99.0249 166.522 99.9719 168.818C100.919 171.114 102.311 173.201 104.068 174.957C105.824 176.713 107.911 178.104 110.208 179.05C112.505 179.995 114.966 180.477 117.45 180.468C121.455 180.468 125.172 179.253 128.25 177.102V179.676H137.34V130.653H128.25ZM23.616 119.853L29.772 130.653H72.216L55.395 101.592L23.625 119.844L23.616 119.853ZM94.833 139.743V130.653H128.25L92.61 68.958L60.759 87.21L85.743 130.653V139.743H94.833ZM141.786 130.653H184.293L129.33 35.532L97.551 53.856L141.786 130.653Z" fill="black"/>
</g>
<defs>
<clipPath id="clip0_45_57">
<rect width="216" height="216" fill="white"/>
</clipPath>
</defs>
</svg>
