<svg width="216" height="216" viewBox="0 0 216 216" fill="none" xmlns="http://www.w3.org/2000/svg">
<path fill-rule="evenodd" clip-rule="evenodd" d="M38.2961 120.306C36.6286 120.306 35.3231 121.473 35.3231 123.175C35.3231 124.878 36.6353 126.038 38.2961 126.038C39.9556 126.038 41.269 124.87 41.269 123.175C41.269 121.473 39.9624 120.306 38.2961 120.306ZM38.2961 125.218C37.1071 125.218 36.2252 124.349 36.2252 123.175C36.2252 122.002 37.1004 121.127 38.2961 121.127C39.4772 121.127 40.3658 122.015 40.3658 123.175C40.3658 124.328 39.4693 125.218 38.2961 125.218ZM67.224 110.273H52.7516L54.3967 85.1176L44.9983 110.273H31.5591L52.8827 53.415H67.1826L65.5319 78.9151L75.1085 53.415H88.5488L67.224 110.273ZM68.9699 110.273L90.2924 53.415H103.732L82.4091 110.273H68.9699Z" fill="black"/>
<path fill-rule="evenodd" clip-rule="evenodd" d="M30.0094 90.6746C11.2294 112.729 -6.48595 142.074 9.16193 155.587C24.3246 168.682 43.2771 160.929 56.1997 155.759C69.1224 150.59 211.956 88.5634 211.956 88.5634C213.334 87.8743 213.076 87.0125 211.353 87.4428C210.658 87.6165 55.8557 129.569 55.8557 129.569C36.2118 135.083 13.8135 123.065 30.0094 90.6746Z" fill="black"/>
<path fill-rule="evenodd" clip-rule="evenodd" d="M38.8026 123.377C39.2194 123.356 39.5455 123.141 39.5455 122.564C39.5455 121.82 39.0592 121.633 38.2468 121.633H37.0791V124.718H37.8579V123.405H37.989L38.6984 124.718H39.5937L38.8026 123.377ZM38.3028 122.877H37.859V122.161H38.2333C38.463 122.161 38.7264 122.188 38.7264 122.487C38.7264 122.807 38.574 122.877 38.3028 122.877ZM173.392 53.2413C171.724 53.2413 170.419 54.409 170.419 56.11C170.419 57.8122 171.732 58.972 173.392 58.972C175.051 58.972 176.365 57.8044 176.365 56.11C176.366 54.409 175.06 53.2413 173.392 53.2413ZM173.392 58.154C172.203 58.154 171.321 57.2855 171.321 56.1112C171.321 54.9379 172.196 54.0627 173.392 54.0627C174.573 54.0627 175.463 54.9514 175.463 56.1112C175.463 57.2642 174.566 58.154 173.392 58.154Z" fill="black"/>
<path fill-rule="evenodd" clip-rule="evenodd" d="M173.9 56.3118C174.316 56.2916 174.644 56.0764 174.644 55.4993C174.644 54.7553 174.156 54.5681 173.345 54.5681H172.177V57.652H172.955V56.3398H173.087L173.795 57.652H174.692L173.9 56.3118ZM173.399 55.812H172.955V55.0959H173.33C173.559 55.0959 173.823 55.1239 173.823 55.4231C173.823 55.7425 173.67 55.812 173.399 55.812ZM164.537 62.8918L168.149 53.415H127.142L113.062 70.4726L119.562 53.415H105.951L84.7983 110.273H98.2376L107.268 86.4959L107.887 110.273L149.123 110.183L153.049 99.246H137.371L142.522 85.4627H155.444L159.419 74.8664H146.498L150.928 62.8918H164.537ZM121.22 106.482L120.358 76.8476L140.678 54.5379L121.22 106.482Z" fill="black"/>
</svg>
