<svg width="216" height="216" viewBox="0 0 216 216" fill="none" xmlns="http://www.w3.org/2000/svg">
<g clip-path="url(#clip0_45_48)">
<path d="M81.6907 111.111C81.2222 114.315 80.658 117.514 80.0938 120.697C78.648 128.853 77.2778 136.566 77.5649 144.475C78.0536 158.188 86.8846 169.155 100.058 172.424C109.922 174.883 120.294 174.278 132.198 170.545C159.84 161.885 182.192 144.762 200.529 118.199C211.34 102.552 216.388 87.328 215.975 71.6558C215.647 58.4218 207.511 47.6211 195.28 44.135C184.852 41.1678 174.515 41.4247 162.656 45.0015C164.369 45.7269 165.966 46.6488 167.457 47.7823C176.192 54.4219 179.018 64.195 175.85 76.8295C171.925 92.4462 162.772 105.448 154.51 116.41C152.787 118.692 150.762 121.347 148.505 123.947C144.435 128.612 141.07 130.979 138.48 130.979C137.04 130.979 135.543 130.319 134.591 129.236C133.639 128.148 133.166 126.581 133.342 125.146L133.548 123.594C136.43 105.086 138.773 88.401 138.349 71.3434C138.012 57.5201 129.423 46.8352 115.932 43.4549C109.786 41.9033 103.317 41.722 95.499 42.8857C86.7335 44.1854 78.2752 46.8251 69.6356 50.956C66.7339 52.3414 64.1949 53.7469 62.0842 55.0214C72.9957 59.7316 80.124 68.6634 82.9149 81.2576C84.9149 90.2649 83.5698 98.9549 82.2701 107.358L81.6907 111.111ZM26.5434 173.225C35.2838 174.419 44.0191 173.694 53.2582 170.963C50.0794 169.512 47.223 167.407 44.8956 164.752C40.2257 159.407 38.1804 152.551 39.1376 145.437C39.9688 139.261 41.7018 133.287 44.4271 127.166C48.8351 117.267 55.0264 108.577 61.0162 100.169L61.5149 99.4738C67.283 91.3783 65.8574 81.0964 58.054 74.4769C55.1372 72.0034 51.2683 70.6432 47.1626 70.6432C42.1703 70.6432 37.2434 72.6381 33.6314 76.1141C26.2563 83.2172 20.4982 89.9526 16.0197 96.698C4.48348 114.078 -0.448396 128.637 0.0301819 143.886C0.523873 159.553 10.9317 171.074 26.5434 173.225Z" fill="#050206"/>
</g>
<defs>
<clipPath id="clip0_45_48">
<rect width="216" height="216" fill="white"/>
</clipPath>
</defs>
</svg>
