<svg width="449" height="280" viewBox="0 0 449 280" fill="none" xmlns="http://www.w3.org/2000/svg">
<path d="M364 209.853C363.935 207.911 362.25 190.472 322.831 176.099C310.865 171.735 297.761 168.959 282.772 167.605C275.763 166.97 266.499 165.5 256.489 162.276L251.818 178.619C251.234 180.667 249.368 182.002 247.333 182.002C246.913 182.002 246.479 181.946 246.049 181.82C243.572 181.115 242.139 178.53 242.848 176.052L247.706 159.047C238.302 155.108 228.642 149.466 219.855 141.412L203.965 157.302C203.055 158.212 201.86 158.669 200.666 158.669C199.471 158.669 198.277 158.212 197.367 157.302C195.542 155.477 195.542 152.528 197.367 150.703L213.317 134.753C207.12 127.753 201.585 119.273 197.185 109.044L179.922 120.552C179.125 121.084 178.224 121.336 177.337 121.336C175.83 121.336 174.351 120.608 173.45 119.26C172.022 117.113 172.601 114.215 174.743 112.787L193.802 100.08C190.866 91.2455 188.715 81.2776 187.586 70.0032H172.666C170.091 70.0032 168 67.9125 168 65.3367C168 62.7609 170.091 60.6702 172.666 60.6702H186.891C186.751 57.646 186.666 54.5523 186.666 51.3553C186.666 48.8774 184.721 46.8288 182.247 46.6981C181.249 46.6374 159.418 45.6809 151.041 60.6888H98C90.2814 60.6888 84 66.9702 84 74.6888V116.67L92.4 127.87C112.345 154.05 143.556 165.567 166.106 167.607C181.095 168.96 194.199 171.737 206.164 176.1C235.093 186.647 243.67 198.822 246.228 205.337H235.621C232.139 200.367 223.646 192.41 202.968 184.869C191.773 180.785 179.443 178.182 165.266 176.903C153.361 175.825 112.397 169.516 84.957 133.498L84 132.223V210.002V214.669C84 224.963 92.3721 233.335 102.666 233.335H345.333C355.628 233.335 363.999 224.963 363.999 214.669V210.002C363.999 209.974 363.985 209.956 363.985 209.927C363.986 209.904 364 209.881 364 209.853ZM163.334 102.669C163.334 110.387 157.052 116.669 149.334 116.669H121.334C113.615 116.669 107.334 110.387 107.334 102.669V93.3351C107.334 85.6165 113.615 79.3351 121.334 79.3351H149.334C157.052 79.3351 163.334 85.6165 163.334 93.3351V102.669ZM345.334 224.002H102.666C97.5193 224.002 93.333 219.816 93.333 214.669H242.666H354.666C354.666 219.816 350.481 224.002 345.334 224.002Z" fill="black"/>
<path d="M149.333 88.6685H121.333C118.762 88.6685 116.667 90.7635 116.667 93.3349V102.668C116.667 105.24 118.762 107.335 121.333 107.335H149.333C151.905 107.335 154 105.24 154 102.668V93.3349C154 90.7641 151.905 88.6685 149.333 88.6685Z" fill="black"/>
<mask id="path-3-outside-1_40_33" maskUnits="userSpaceOnUse" x="-5" y="86" width="453" height="108" fill="black">
<rect fill="white" x="-5" y="86" width="453" height="108"/>
<path d="M46.848 186.304C38.5707 186.304 31.0613 184.64 24.32 181.312C17.664 177.899 12.3733 172.864 8.448 166.208C4.52267 159.552 2.56 151.403 2.56 141.76C2.56 134.421 3.75467 127.979 6.144 122.432C8.53333 116.885 11.776 112.235 15.872 108.48C20.0533 104.725 24.832 101.909 30.208 100.032C35.6693 98.1547 41.4293 97.216 47.488 97.216C52.352 97.216 56.832 97.7707 60.928 98.88C65.024 99.9893 68.864 101.525 72.448 103.488L72.96 119.232H71.68L65.28 108.992C64.4267 107.371 63.488 105.92 62.464 104.64C61.44 103.275 60.16 102.251 58.624 101.568C57.344 100.971 56.064 100.544 54.784 100.288C53.5893 99.9467 52.0533 99.776 50.176 99.776C45.2267 99.776 40.704 101.099 36.608 103.744C32.5973 106.389 29.3547 110.784 26.88 116.928C24.4907 122.987 23.296 131.307 23.296 141.888C23.296 152.384 24.448 160.704 26.752 166.848C29.056 172.907 32.1707 177.259 36.096 179.904C40.1067 182.464 44.5867 183.744 49.536 183.744C52.2667 183.744 54.4427 183.573 56.064 183.232C57.6853 182.805 59.3067 182.208 60.928 181.44C62.5493 180.757 63.7867 179.776 64.64 178.496C65.4933 177.131 66.2613 175.68 66.944 174.144L72.576 161.6H73.856L73.472 179.904C69.888 181.781 65.8773 183.317 61.44 184.512C57.0027 185.707 52.1387 186.304 46.848 186.304ZM80.069 184V182.72L81.605 182.208C84.677 181.184 86.213 179.051 86.213 175.808V107.456C86.213 105.664 85.9143 104.341 85.317 103.488C84.7197 102.635 83.5677 101.995 81.861 101.568L79.941 101.056V99.776L102.469 94.272L104.517 95.424L104.005 113.472V129.472C106.992 126.997 110.192 124.907 113.605 123.2C117.104 121.408 120.944 120.512 125.125 120.512C130.672 120.512 135.066 122.091 138.309 125.248C141.637 128.405 143.301 133.269 143.301 139.84V175.936C143.301 177.643 143.642 179.008 144.325 180.032C145.008 181.056 146.202 181.824 147.909 182.336L148.933 182.72V184H118.981V182.72L120.517 182.336C123.589 181.312 125.125 179.136 125.125 175.808V135.616C125.125 132.203 124.528 129.856 123.333 128.576C122.224 127.296 120.218 126.656 117.317 126.656C115.44 126.656 113.392 127.04 111.173 127.808C108.954 128.491 106.693 129.728 104.389 131.52V176.064C104.389 179.392 105.925 181.525 108.997 182.464L110.021 182.72V184H80.069ZM186.319 185.92C179.834 185.92 174.202 184.597 169.423 181.952C164.644 179.221 160.932 175.381 158.287 170.432C155.727 165.483 154.447 159.68 154.447 153.024C154.447 146.368 155.812 140.608 158.543 135.744C161.359 130.88 165.156 127.125 169.935 124.48C174.799 121.835 180.26 120.512 186.319 120.512C192.378 120.512 197.796 121.835 202.575 124.48C207.354 127.04 211.108 130.752 213.839 135.616C216.655 140.48 218.063 146.283 218.063 153.024C218.063 159.765 216.74 165.611 214.095 170.56C211.535 175.424 207.866 179.221 203.087 181.952C198.394 184.597 192.804 185.92 186.319 185.92ZM186.319 183.36C189.306 183.36 191.695 182.507 193.487 180.8C195.279 179.093 196.559 176.064 197.327 171.712C198.18 167.36 198.607 161.216 198.607 153.28C198.607 145.259 198.18 139.072 197.327 134.72C196.559 130.368 195.279 127.339 193.487 125.632C191.695 123.925 189.306 123.072 186.319 123.072C183.332 123.072 180.9 123.925 179.023 125.632C177.231 127.339 175.908 130.368 175.055 134.72C174.287 139.072 173.903 145.259 173.903 153.28C173.903 161.216 174.287 167.36 175.055 171.712C175.908 176.064 177.231 179.093 179.023 180.8C180.9 182.507 183.332 183.36 186.319 183.36ZM256.819 185.92C250.334 185.92 244.702 184.597 239.923 181.952C235.144 179.221 231.432 175.381 228.787 170.432C226.227 165.483 224.947 159.68 224.947 153.024C224.947 146.368 226.312 140.608 229.043 135.744C231.859 130.88 235.656 127.125 240.435 124.48C245.299 121.835 250.76 120.512 256.819 120.512C262.878 120.512 268.296 121.835 273.075 124.48C277.854 127.04 281.608 130.752 284.339 135.616C287.155 140.48 288.563 146.283 288.563 153.024C288.563 159.765 287.24 165.611 284.595 170.56C282.035 175.424 278.366 179.221 273.587 181.952C268.894 184.597 263.304 185.92 256.819 185.92ZM256.819 183.36C259.806 183.36 262.195 182.507 263.987 180.8C265.779 179.093 267.059 176.064 267.827 171.712C268.68 167.36 269.107 161.216 269.107 153.28C269.107 145.259 268.68 139.072 267.827 134.72C267.059 130.368 265.779 127.339 263.987 125.632C262.195 123.925 259.806 123.072 256.819 123.072C253.832 123.072 251.4 123.925 249.523 125.632C247.731 127.339 246.408 130.368 245.555 134.72C244.787 139.072 244.403 145.259 244.403 153.28C244.403 161.216 244.787 167.36 245.555 171.712C246.408 176.064 247.731 179.093 249.523 180.8C251.4 182.507 253.832 183.36 256.819 183.36ZM316.329 185.92C312.148 185.92 308.393 185.408 305.065 184.384C301.737 183.445 298.665 182.251 295.849 180.8L295.977 165.568H297.257L301.609 173.248C303.486 176.661 305.534 179.221 307.753 180.928C310.057 182.549 312.958 183.36 316.457 183.36C320.553 183.36 323.838 182.464 326.313 180.672C328.873 178.795 330.153 176.32 330.153 173.248C330.153 170.432 329.257 168.128 327.465 166.336C325.673 164.544 322.345 162.923 317.481 161.472L312.105 159.808C306.9 158.272 302.804 155.883 299.817 152.64C296.83 149.397 295.337 145.429 295.337 140.736C295.337 135.104 297.556 130.325 301.993 126.4C306.43 122.475 312.788 120.512 321.065 120.512C324.393 120.512 327.508 120.896 330.409 121.664C333.396 122.347 336.254 123.413 338.985 124.864L338.217 138.688H336.937L332.457 130.752C330.836 127.936 329.214 125.973 327.593 124.864C326.057 123.669 323.71 123.072 320.553 123.072C317.652 123.072 314.921 123.883 312.361 125.504C309.801 127.125 308.521 129.429 308.521 132.416C308.521 135.317 309.588 137.621 311.721 139.328C313.94 141.035 317.182 142.613 321.449 144.064L327.209 145.728C333.353 147.605 337.748 150.208 340.393 153.536C343.038 156.779 344.361 160.704 344.361 165.312C344.361 171.541 341.886 176.533 336.937 180.288C332.073 184.043 325.204 185.92 316.329 185.92ZM382.063 120.512C387.61 120.512 392.346 121.664 396.271 123.968C400.196 126.187 403.183 129.259 405.231 133.184C407.364 137.024 408.431 141.419 408.431 146.368C408.431 147.307 408.388 148.288 408.303 149.312C408.218 150.251 408.047 151.104 407.791 151.872H369.647C369.732 161.088 371.354 167.744 374.511 171.84C377.754 175.851 382.532 177.856 388.847 177.856C393.114 177.856 396.57 177.173 399.215 175.808C401.86 174.443 404.335 172.437 406.639 169.792L407.919 170.944C405.274 175.637 401.732 179.307 397.295 181.952C392.943 184.597 387.695 185.92 381.551 185.92C375.492 185.92 370.116 184.64 365.423 182.08C360.73 179.435 357.06 175.68 354.415 170.816C351.77 165.952 350.447 160.149 350.447 153.408C350.447 146.411 351.983 140.48 355.055 135.616C358.127 130.667 362.052 126.912 366.831 124.352C371.695 121.792 376.772 120.512 382.063 120.512ZM381.679 123.072C379.204 123.072 377.071 123.84 375.279 125.376C373.572 126.827 372.207 129.472 371.183 133.312C370.244 137.067 369.732 142.4 369.647 149.312H391.535C392.388 140.011 392.047 133.312 390.511 129.216C388.975 125.12 386.031 123.072 381.679 123.072ZM429.825 185.92C426.753 185.92 424.15 184.853 422.017 182.72C419.884 180.587 418.817 178.027 418.817 175.04C418.817 172.053 419.884 169.451 422.017 167.232C424.15 165.013 426.753 163.904 429.825 163.904C432.897 163.904 435.5 165.013 437.633 167.232C439.766 169.451 440.833 172.053 440.833 175.04C440.833 178.027 439.766 180.587 437.633 182.72C435.5 184.853 432.897 185.92 429.825 185.92Z"/>
</mask>
<path d="M46.848 186.304C38.5707 186.304 31.0613 184.64 24.32 181.312C17.664 177.899 12.3733 172.864 8.448 166.208C4.52267 159.552 2.56 151.403 2.56 141.76C2.56 134.421 3.75467 127.979 6.144 122.432C8.53333 116.885 11.776 112.235 15.872 108.48C20.0533 104.725 24.832 101.909 30.208 100.032C35.6693 98.1547 41.4293 97.216 47.488 97.216C52.352 97.216 56.832 97.7707 60.928 98.88C65.024 99.9893 68.864 101.525 72.448 103.488L72.96 119.232H71.68L65.28 108.992C64.4267 107.371 63.488 105.92 62.464 104.64C61.44 103.275 60.16 102.251 58.624 101.568C57.344 100.971 56.064 100.544 54.784 100.288C53.5893 99.9467 52.0533 99.776 50.176 99.776C45.2267 99.776 40.704 101.099 36.608 103.744C32.5973 106.389 29.3547 110.784 26.88 116.928C24.4907 122.987 23.296 131.307 23.296 141.888C23.296 152.384 24.448 160.704 26.752 166.848C29.056 172.907 32.1707 177.259 36.096 179.904C40.1067 182.464 44.5867 183.744 49.536 183.744C52.2667 183.744 54.4427 183.573 56.064 183.232C57.6853 182.805 59.3067 182.208 60.928 181.44C62.5493 180.757 63.7867 179.776 64.64 178.496C65.4933 177.131 66.2613 175.68 66.944 174.144L72.576 161.6H73.856L73.472 179.904C69.888 181.781 65.8773 183.317 61.44 184.512C57.0027 185.707 52.1387 186.304 46.848 186.304ZM80.069 184V182.72L81.605 182.208C84.677 181.184 86.213 179.051 86.213 175.808V107.456C86.213 105.664 85.9143 104.341 85.317 103.488C84.7197 102.635 83.5677 101.995 81.861 101.568L79.941 101.056V99.776L102.469 94.272L104.517 95.424L104.005 113.472V129.472C106.992 126.997 110.192 124.907 113.605 123.2C117.104 121.408 120.944 120.512 125.125 120.512C130.672 120.512 135.066 122.091 138.309 125.248C141.637 128.405 143.301 133.269 143.301 139.84V175.936C143.301 177.643 143.642 179.008 144.325 180.032C145.008 181.056 146.202 181.824 147.909 182.336L148.933 182.72V184H118.981V182.72L120.517 182.336C123.589 181.312 125.125 179.136 125.125 175.808V135.616C125.125 132.203 124.528 129.856 123.333 128.576C122.224 127.296 120.218 126.656 117.317 126.656C115.44 126.656 113.392 127.04 111.173 127.808C108.954 128.491 106.693 129.728 104.389 131.52V176.064C104.389 179.392 105.925 181.525 108.997 182.464L110.021 182.72V184H80.069ZM186.319 185.92C179.834 185.92 174.202 184.597 169.423 181.952C164.644 179.221 160.932 175.381 158.287 170.432C155.727 165.483 154.447 159.68 154.447 153.024C154.447 146.368 155.812 140.608 158.543 135.744C161.359 130.88 165.156 127.125 169.935 124.48C174.799 121.835 180.26 120.512 186.319 120.512C192.378 120.512 197.796 121.835 202.575 124.48C207.354 127.04 211.108 130.752 213.839 135.616C216.655 140.48 218.063 146.283 218.063 153.024C218.063 159.765 216.74 165.611 214.095 170.56C211.535 175.424 207.866 179.221 203.087 181.952C198.394 184.597 192.804 185.92 186.319 185.92ZM186.319 183.36C189.306 183.36 191.695 182.507 193.487 180.8C195.279 179.093 196.559 176.064 197.327 171.712C198.18 167.36 198.607 161.216 198.607 153.28C198.607 145.259 198.18 139.072 197.327 134.72C196.559 130.368 195.279 127.339 193.487 125.632C191.695 123.925 189.306 123.072 186.319 123.072C183.332 123.072 180.9 123.925 179.023 125.632C177.231 127.339 175.908 130.368 175.055 134.72C174.287 139.072 173.903 145.259 173.903 153.28C173.903 161.216 174.287 167.36 175.055 171.712C175.908 176.064 177.231 179.093 179.023 180.8C180.9 182.507 183.332 183.36 186.319 183.36ZM256.819 185.92C250.334 185.92 244.702 184.597 239.923 181.952C235.144 179.221 231.432 175.381 228.787 170.432C226.227 165.483 224.947 159.68 224.947 153.024C224.947 146.368 226.312 140.608 229.043 135.744C231.859 130.88 235.656 127.125 240.435 124.48C245.299 121.835 250.76 120.512 256.819 120.512C262.878 120.512 268.296 121.835 273.075 124.48C277.854 127.04 281.608 130.752 284.339 135.616C287.155 140.48 288.563 146.283 288.563 153.024C288.563 159.765 287.24 165.611 284.595 170.56C282.035 175.424 278.366 179.221 273.587 181.952C268.894 184.597 263.304 185.92 256.819 185.92ZM256.819 183.36C259.806 183.36 262.195 182.507 263.987 180.8C265.779 179.093 267.059 176.064 267.827 171.712C268.68 167.36 269.107 161.216 269.107 153.28C269.107 145.259 268.68 139.072 267.827 134.72C267.059 130.368 265.779 127.339 263.987 125.632C262.195 123.925 259.806 123.072 256.819 123.072C253.832 123.072 251.4 123.925 249.523 125.632C247.731 127.339 246.408 130.368 245.555 134.72C244.787 139.072 244.403 145.259 244.403 153.28C244.403 161.216 244.787 167.36 245.555 171.712C246.408 176.064 247.731 179.093 249.523 180.8C251.4 182.507 253.832 183.36 256.819 183.36ZM316.329 185.92C312.148 185.92 308.393 185.408 305.065 184.384C301.737 183.445 298.665 182.251 295.849 180.8L295.977 165.568H297.257L301.609 173.248C303.486 176.661 305.534 179.221 307.753 180.928C310.057 182.549 312.958 183.36 316.457 183.36C320.553 183.36 323.838 182.464 326.313 180.672C328.873 178.795 330.153 176.32 330.153 173.248C330.153 170.432 329.257 168.128 327.465 166.336C325.673 164.544 322.345 162.923 317.481 161.472L312.105 159.808C306.9 158.272 302.804 155.883 299.817 152.64C296.83 149.397 295.337 145.429 295.337 140.736C295.337 135.104 297.556 130.325 301.993 126.4C306.43 122.475 312.788 120.512 321.065 120.512C324.393 120.512 327.508 120.896 330.409 121.664C333.396 122.347 336.254 123.413 338.985 124.864L338.217 138.688H336.937L332.457 130.752C330.836 127.936 329.214 125.973 327.593 124.864C326.057 123.669 323.71 123.072 320.553 123.072C317.652 123.072 314.921 123.883 312.361 125.504C309.801 127.125 308.521 129.429 308.521 132.416C308.521 135.317 309.588 137.621 311.721 139.328C313.94 141.035 317.182 142.613 321.449 144.064L327.209 145.728C333.353 147.605 337.748 150.208 340.393 153.536C343.038 156.779 344.361 160.704 344.361 165.312C344.361 171.541 341.886 176.533 336.937 180.288C332.073 184.043 325.204 185.92 316.329 185.92ZM382.063 120.512C387.61 120.512 392.346 121.664 396.271 123.968C400.196 126.187 403.183 129.259 405.231 133.184C407.364 137.024 408.431 141.419 408.431 146.368C408.431 147.307 408.388 148.288 408.303 149.312C408.218 150.251 408.047 151.104 407.791 151.872H369.647C369.732 161.088 371.354 167.744 374.511 171.84C377.754 175.851 382.532 177.856 388.847 177.856C393.114 177.856 396.57 177.173 399.215 175.808C401.86 174.443 404.335 172.437 406.639 169.792L407.919 170.944C405.274 175.637 401.732 179.307 397.295 181.952C392.943 184.597 387.695 185.92 381.551 185.92C375.492 185.92 370.116 184.64 365.423 182.08C360.73 179.435 357.06 175.68 354.415 170.816C351.77 165.952 350.447 160.149 350.447 153.408C350.447 146.411 351.983 140.48 355.055 135.616C358.127 130.667 362.052 126.912 366.831 124.352C371.695 121.792 376.772 120.512 382.063 120.512ZM381.679 123.072C379.204 123.072 377.071 123.84 375.279 125.376C373.572 126.827 372.207 129.472 371.183 133.312C370.244 137.067 369.732 142.4 369.647 149.312H391.535C392.388 140.011 392.047 133.312 390.511 129.216C388.975 125.12 386.031 123.072 381.679 123.072ZM429.825 185.92C426.753 185.92 424.15 184.853 422.017 182.72C419.884 180.587 418.817 178.027 418.817 175.04C418.817 172.053 419.884 169.451 422.017 167.232C424.15 165.013 426.753 163.904 429.825 163.904C432.897 163.904 435.5 165.013 437.633 167.232C439.766 169.451 440.833 172.053 440.833 175.04C440.833 178.027 439.766 180.587 437.633 182.72C435.5 184.853 432.897 185.92 429.825 185.92Z" fill="black"/>
<path d="M24.32 181.312L21.1258 187.541L21.1734 187.565L21.2213 187.589L24.32 181.312ZM8.448 166.208L14.4776 162.652L14.4776 162.652L8.448 166.208ZM6.144 122.432L-0.284888 119.663L-0.284889 119.663L6.144 122.432ZM15.872 108.48L11.1951 103.272L11.1684 103.296L11.1419 103.32L15.872 108.48ZM30.208 100.032L27.9324 93.4122L27.9163 93.4177L27.9002 93.4234L30.208 100.032ZM60.928 98.88L59.0981 105.637L59.0981 105.637L60.928 98.88ZM72.448 103.488L79.4443 103.26L79.3144 99.2673L75.8102 97.3483L72.448 103.488ZM72.96 119.232V126.232H80.1914L79.9563 119.004L72.96 119.232ZM71.68 119.232L65.744 122.942L67.8003 126.232H71.68V119.232ZM65.28 108.992L59.0856 112.252L59.2065 112.482L59.344 112.702L65.28 108.992ZM62.464 104.64L56.864 108.84L56.9296 108.927L56.9979 109.013L62.464 104.64ZM58.624 101.568L55.6638 107.911L55.7222 107.939L55.781 107.965L58.624 101.568ZM54.784 100.288L52.861 107.019L53.1334 107.096L53.4112 107.152L54.784 100.288ZM36.608 103.744L32.8103 97.8637L32.782 97.882L32.7538 97.9006L36.608 103.744ZM26.88 116.928L20.3869 114.313L20.3774 114.336L20.3681 114.36L26.88 116.928ZM26.752 166.848L20.1977 169.306L20.2034 169.321L20.2091 169.336L26.752 166.848ZM36.096 179.904L32.184 185.709L32.2563 185.758L32.3298 185.804L36.096 179.904ZM56.064 183.232L57.5061 190.082L57.6768 190.046L57.8455 190.002L56.064 183.232ZM60.928 181.44L58.2116 174.989L58.0701 175.048L57.9314 175.114L60.928 181.44ZM64.64 178.496L70.4644 182.379L70.5214 182.293L70.576 182.206L64.64 178.496ZM66.944 174.144L60.5581 171.277L60.5527 171.289L60.5473 171.301L66.944 174.144ZM72.576 161.6V154.6H68.0457L66.1901 158.733L72.576 161.6ZM73.856 161.6L80.8545 161.747L81.0044 154.6H73.856V161.6ZM73.472 179.904L76.72 186.105L80.3837 184.186L80.4705 180.051L73.472 179.904ZM46.848 179.304C39.5353 179.304 33.1022 177.841 27.4187 175.035L21.2213 187.589C29.0204 191.439 37.6061 193.304 46.848 193.304V179.304ZM27.5142 175.083C22.0776 172.295 17.7532 168.206 14.4776 162.652L2.41844 169.764C6.99344 177.522 13.2504 183.502 21.1258 187.541L27.5142 175.083ZM14.4776 162.652C11.3273 157.31 9.56 150.459 9.56 141.76H-4.44C-4.44 152.346 -2.28192 161.794 2.41844 169.764L14.4776 162.652ZM9.56 141.76C9.56 135.174 10.6322 129.707 12.5729 125.201L-0.284889 119.663C-3.12283 126.251 -4.44 133.669 -4.44 141.76H9.56ZM12.5729 125.201C14.6055 120.483 17.2963 116.67 20.6021 113.64L11.1419 103.32C6.25573 107.799 2.46116 113.288 -0.284888 119.663L12.5729 125.201ZM20.5489 113.688C24.0316 110.561 28.0024 108.217 32.5158 106.641L27.9002 93.4234C21.6616 95.6019 16.0751 98.8897 11.1951 103.272L20.5489 113.688ZM32.4836 106.652C37.1772 105.038 42.1653 104.216 47.488 104.216V90.216C40.6934 90.216 34.1615 91.271 27.9324 93.4122L32.4836 106.652ZM47.488 104.216C51.8222 104.216 55.6782 104.71 59.0981 105.637L62.7579 92.1234C57.9858 90.831 52.8818 90.216 47.488 90.216V104.216ZM59.0981 105.637C62.6813 106.607 66.0048 107.94 69.0858 109.628L75.8102 97.3483C71.7233 95.1102 67.3667 93.3716 62.7579 92.1234L59.0981 105.637ZM65.4517 103.716L65.9637 119.46L79.9563 119.004L79.4443 103.26L65.4517 103.716ZM72.96 112.232H71.68V126.232H72.96V112.232ZM77.616 115.522L71.216 105.282L59.344 112.702L65.744 122.942L77.616 115.522ZM71.4744 105.732C70.438 103.763 69.2618 101.932 67.9301 100.267L56.9979 109.013C57.7142 109.908 58.4154 110.979 59.0856 112.252L71.4744 105.732ZM68.064 100.44C66.3349 98.1346 64.1117 96.3468 61.467 95.1713L55.781 107.965C56.2083 108.155 56.5451 108.415 56.864 108.84L68.064 100.44ZM61.5842 95.2247C59.8389 94.4103 58.0277 93.7981 56.1568 93.4239L53.4112 107.152C54.1003 107.29 54.8491 107.531 55.6638 107.911L61.5842 95.2247ZM56.7071 93.5573C54.6551 92.9711 52.408 92.776 50.176 92.776V106.776C51.6987 106.776 52.5236 106.922 52.861 107.019L56.7071 93.5573ZM50.176 92.776C43.9009 92.776 38.056 94.4759 32.8103 97.8637L40.4057 109.624C43.352 107.721 46.5524 106.776 50.176 106.776V92.776ZM32.7538 97.9006C27.1834 101.575 23.1973 107.335 20.3869 114.313L33.3731 119.543C35.512 114.233 38.0112 111.204 40.4622 109.587L32.7538 97.9006ZM20.3681 114.36C17.5175 121.588 16.296 130.908 16.296 141.888H30.296C30.296 131.705 31.4639 124.385 33.3919 119.496L20.3681 114.36ZM16.296 141.888C16.296 152.781 17.4758 162.048 20.1977 169.306L33.3063 164.39C31.4202 159.36 30.296 151.987 30.296 141.888H16.296ZM20.2091 169.336C22.8414 176.258 26.6906 182.007 32.184 185.709L40.008 174.099C37.6508 172.511 35.2706 169.555 33.2949 164.36L20.2091 169.336ZM32.3298 185.804C37.512 189.112 43.3086 190.744 49.536 190.744V176.744C45.8647 176.744 42.7013 175.816 39.8622 174.004L32.3298 185.804ZM49.536 190.744C52.483 190.744 55.2052 190.566 57.5061 190.082L54.6219 176.382C53.6801 176.58 52.0504 176.744 49.536 176.744V190.744ZM57.8455 190.002C59.9127 189.458 61.9398 188.706 63.9246 187.766L57.9314 175.114C56.6735 175.71 55.458 176.153 54.2825 176.462L57.8455 190.002ZM63.6444 187.891C66.3443 186.755 68.7442 184.959 70.4644 182.379L58.8156 174.613C58.8047 174.629 58.7842 174.658 58.7222 174.708C58.6546 174.761 58.5022 174.866 58.2116 174.989L63.6444 187.891ZM70.576 182.206C71.6104 180.551 72.5307 178.809 73.3407 176.987L60.5473 171.301C59.9919 172.551 59.3763 173.71 58.704 174.786L70.576 182.206ZM73.3299 177.011L78.9619 164.467L66.1901 158.733L60.5581 171.277L73.3299 177.011ZM72.576 168.6H73.856V154.6H72.576V168.6ZM66.8575 161.453L66.4735 179.757L80.4705 180.051L80.8545 161.747L66.8575 161.453ZM70.224 173.703C67.1506 175.313 63.628 176.674 59.6202 177.753L63.2598 191.271C68.1267 189.961 72.6254 188.25 76.72 186.105L70.224 173.703ZM59.6202 177.753C55.8579 178.766 51.6148 179.304 46.848 179.304V193.304C52.6626 193.304 58.1475 192.648 63.2598 191.271L59.6202 177.753ZM80.069 184H73.069V191H80.069V184ZM80.069 182.72L77.8554 176.079L73.069 177.675V182.72H80.069ZM81.605 182.208L79.3914 175.567L79.3914 175.567L81.605 182.208ZM85.317 103.488L79.5824 107.502L79.5824 107.502L85.317 103.488ZM81.861 101.568L80.0574 108.332L80.1102 108.346L80.1633 108.359L81.861 101.568ZM79.941 101.056H72.941V106.434L78.1374 107.82L79.941 101.056ZM79.941 99.776L78.2796 92.976L72.941 94.2803V99.776H79.941ZM102.469 94.272L105.901 88.171L103.492 86.8161L100.808 87.472L102.469 94.272ZM104.517 95.424L111.514 95.6225L111.634 91.3959L107.949 89.323L104.517 95.424ZM104.005 113.472L97.0078 113.273L97.005 113.373V113.472H104.005ZM104.005 129.472H97.005V144.363L108.471 134.862L104.005 129.472ZM113.605 123.2L116.735 129.461L116.766 129.446L116.796 129.43L113.605 123.2ZM138.309 125.248L133.426 130.263L133.458 130.295L133.491 130.326L138.309 125.248ZM147.909 182.336L150.367 175.782L150.146 175.699L149.92 175.631L147.909 182.336ZM148.933 182.72H155.933V177.869L151.391 176.166L148.933 182.72ZM148.933 184V191H155.933V184H148.933ZM118.981 184H111.981V191H118.981V184ZM118.981 182.72L117.283 175.929L111.981 177.255V182.72H118.981ZM120.517 182.336L122.215 189.127L122.476 189.062L122.731 188.977L120.517 182.336ZM123.333 128.576L118.043 133.161L118.128 133.258L118.216 133.352L123.333 128.576ZM111.173 127.808L113.232 134.498L113.348 134.463L113.463 134.423L111.173 127.808ZM104.389 131.52L100.091 125.995L97.389 128.096V131.52H104.389ZM108.997 182.464L106.951 189.158L107.124 189.211L107.299 189.255L108.997 182.464ZM110.021 182.72H117.021V177.255L111.719 175.929L110.021 182.72ZM110.021 184V191H117.021V184H110.021ZM87.069 184V182.72H73.069V184H87.069ZM82.2826 189.361L83.8186 188.849L79.3914 175.567L77.8554 176.079L82.2826 189.361ZM83.8186 188.849C86.4212 187.981 88.9323 186.443 90.7417 183.93C92.5505 181.418 93.213 178.549 93.213 175.808H79.213C79.213 176.07 79.1818 176.153 79.1943 176.109C79.2008 176.086 79.2169 176.037 79.2491 175.97C79.2816 175.902 79.3251 175.826 79.3803 175.75C79.4354 175.673 79.4932 175.608 79.5478 175.555C79.602 175.503 79.6441 175.471 79.6644 175.457C79.7038 175.43 79.637 175.485 79.3914 175.567L83.8186 188.849ZM93.213 175.808V107.456H79.213V175.808H93.213ZM93.213 107.456C93.213 105.149 92.8777 102.082 91.0516 99.4738L79.5824 107.502C79.4018 107.244 79.2952 107.024 79.2363 106.881C79.2066 106.809 79.1876 106.753 79.1764 106.717C79.1707 106.699 79.1669 106.685 79.1644 106.676C79.162 106.667 79.1609 106.662 79.1609 106.662C79.1609 106.662 79.1618 106.666 79.1635 106.675C79.1652 106.684 79.1675 106.697 79.1702 106.714C79.1757 106.749 79.1824 106.8 79.189 106.868C79.2022 107.006 79.213 107.2 79.213 107.456H93.213ZM91.0516 99.4738C89.0123 96.5604 85.8629 95.353 83.5587 94.777L80.1633 108.359C80.6074 108.47 80.7093 108.545 80.6055 108.487C80.4926 108.424 80.0319 108.144 79.5824 107.502L91.0516 99.4738ZM83.6646 94.8043L81.7446 94.2923L78.1374 107.82L80.0574 108.332L83.6646 94.8043ZM86.941 101.056V99.776H72.941V101.056H86.941ZM81.6024 106.576L104.13 101.072L100.808 87.472L78.2796 92.976L81.6024 106.576ZM99.0372 100.373L101.085 101.525L107.949 89.323L105.901 88.171L99.0372 100.373ZM97.5198 95.2255L97.0078 113.273L111.002 113.671L111.514 95.6225L97.5198 95.2255ZM97.005 113.472V129.472H111.005V113.472H97.005ZM108.471 134.862C111.054 132.722 113.807 130.925 116.735 129.461L110.475 116.939C106.576 118.888 102.929 121.273 99.5389 124.082L108.471 134.862ZM116.796 129.43C119.244 128.176 121.981 127.512 125.125 127.512V113.512C119.907 113.512 114.963 114.64 110.414 116.97L116.796 129.43ZM125.125 127.512C129.283 127.512 131.772 128.653 133.426 130.263L143.192 120.233C138.361 115.528 132.06 113.512 125.125 113.512V127.512ZM133.491 130.326C134.915 131.677 136.301 134.347 136.301 139.84H150.301C150.301 132.191 148.359 125.134 143.127 120.17L133.491 130.326ZM136.301 139.84V175.936H150.301V139.84H136.301ZM136.301 175.936C136.301 178.508 136.808 181.376 138.501 183.915L150.149 176.149C150.312 176.393 150.352 176.557 150.348 176.542C150.342 176.518 150.301 176.334 150.301 175.936H136.301ZM138.501 183.915C140.416 186.788 143.312 188.265 145.898 189.041L149.92 175.631C149.542 175.518 149.446 175.442 149.518 175.488C149.607 175.545 149.88 175.745 150.149 176.149L138.501 183.915ZM145.451 188.89L146.475 189.274L151.391 176.166L150.367 175.782L145.451 188.89ZM141.933 182.72V184H155.933V182.72H141.933ZM148.933 177H118.981V191H148.933V177ZM125.981 184V182.72H111.981V184H125.981ZM120.679 189.511L122.215 189.127L118.819 175.545L117.283 175.929L120.679 189.511ZM122.731 188.977C125.371 188.097 127.891 186.524 129.692 183.973C131.481 181.438 132.125 178.554 132.125 175.808H118.125C118.125 176.106 118.09 176.222 118.095 176.206C118.097 176.198 118.109 176.16 118.136 176.101C118.163 176.042 118.202 175.973 118.254 175.899C118.306 175.826 118.362 175.761 118.417 175.707C118.472 175.653 118.516 175.619 118.54 175.602C118.589 175.569 118.534 175.618 118.303 175.695L122.731 188.977ZM132.125 175.808V135.616H118.125V175.808H132.125ZM132.125 135.616C132.125 131.895 131.578 127.151 128.45 123.8L118.216 133.352C117.761 132.865 117.779 132.575 117.893 133.023C118.003 133.454 118.125 134.274 118.125 135.616H132.125ZM128.623 123.991C125.488 120.375 120.866 119.656 117.317 119.656V133.656C117.79 133.656 118.152 133.682 118.42 133.717C118.688 133.752 118.828 133.792 118.869 133.805C118.942 133.828 118.513 133.703 118.043 133.161L128.623 123.991ZM117.317 119.656C114.493 119.656 111.662 120.231 108.883 121.193L113.463 134.423C115.122 133.849 116.386 133.656 117.317 133.656V119.656ZM109.114 121.118C105.906 122.105 102.9 123.81 100.091 125.995L108.687 137.045C110.486 135.646 112.002 134.877 113.232 134.498L109.114 121.118ZM97.389 131.52V176.064H111.389V131.52H97.389ZM97.389 176.064C97.389 178.803 98.0304 181.709 99.8603 184.25C101.707 186.815 104.284 188.344 106.951 189.158L111.043 175.77C110.824 175.703 110.791 175.663 110.864 175.712C110.901 175.736 110.958 175.779 111.025 175.843C111.093 175.908 111.16 175.984 111.222 176.07C111.352 176.251 111.404 176.398 111.416 176.441C111.424 176.471 111.389 176.363 111.389 176.064H97.389ZM107.299 189.255L108.323 189.511L111.719 175.929L110.695 175.673L107.299 189.255ZM103.021 182.72V184H117.021V182.72H103.021ZM110.021 177H80.069V191H110.021V177ZM169.423 181.952L165.95 188.03L165.991 188.053L166.033 188.076L169.423 181.952ZM158.287 170.432L152.069 173.648L152.091 173.69L152.113 173.732L158.287 170.432ZM158.543 135.744L152.485 132.237L152.462 132.277L152.439 132.317L158.543 135.744ZM169.935 124.48L166.591 118.331L166.568 118.343L166.545 118.356L169.935 124.48ZM202.575 124.48L199.185 130.604L199.227 130.628L199.269 130.65L202.575 124.48ZM213.839 135.616L207.735 139.043L207.758 139.083L207.781 139.123L213.839 135.616ZM214.095 170.56L207.921 167.26L207.911 167.28L207.901 167.3L214.095 170.56ZM203.087 181.952L206.524 188.05L206.542 188.04L206.56 188.03L203.087 181.952ZM193.487 180.8L198.315 185.869L198.315 185.869L193.487 180.8ZM197.327 171.712L190.458 170.365L190.445 170.43L190.434 170.496L197.327 171.712ZM197.327 134.72L190.434 135.936L190.445 136.002L190.458 136.067L197.327 134.72ZM193.487 125.632L198.315 120.563L198.315 120.563L193.487 125.632ZM179.023 125.632L174.314 120.452L174.254 120.507L174.195 120.563L179.023 125.632ZM175.055 134.72L168.186 133.373L168.173 133.438L168.162 133.504L175.055 134.72ZM175.055 171.712L168.162 172.928L168.173 172.994L168.186 173.059L175.055 171.712ZM179.023 180.8L174.195 185.869L174.254 185.925L174.314 185.98L179.023 180.8ZM186.319 178.92C180.797 178.92 176.376 177.8 172.813 175.828L166.033 188.076C172.028 191.395 178.87 192.92 186.319 192.92V178.92ZM172.896 175.874C169.284 173.811 166.498 170.944 164.461 167.132L152.113 173.732C155.367 179.819 160.004 184.632 165.95 188.03L172.896 175.874ZM164.505 167.216C162.55 163.437 161.447 158.777 161.447 153.024H147.447C147.447 160.583 148.904 167.529 152.069 173.648L164.505 167.216ZM161.447 153.024C161.447 147.336 162.608 142.803 164.647 139.171L152.439 132.317C149.017 138.413 147.447 145.4 147.447 153.024H161.447ZM164.601 139.251C166.801 135.452 169.69 132.617 173.325 130.604L166.545 118.356C160.623 121.634 155.917 126.308 152.485 132.237L164.601 139.251ZM173.279 130.629C177.022 128.594 181.316 127.512 186.319 127.512V113.512C179.205 113.512 172.576 115.076 166.591 118.331L173.279 130.629ZM186.319 127.512C191.324 127.512 195.554 128.594 199.185 130.604L205.965 118.356C200.039 115.075 193.431 113.512 186.319 113.512V127.512ZM199.269 130.65C202.838 132.562 205.637 135.306 207.735 139.043L219.943 132.189C216.58 126.198 211.87 121.518 205.881 118.31L199.269 130.65ZM207.781 139.123C209.867 142.727 211.063 147.268 211.063 153.024H225.063C225.063 145.297 223.443 138.233 219.897 132.109L207.781 139.123ZM211.063 153.024C211.063 158.845 209.925 163.512 207.921 167.26L220.269 173.86C223.556 167.71 225.063 160.686 225.063 153.024H211.063ZM207.901 167.3C205.962 170.983 203.238 173.804 199.614 175.874L206.56 188.03C212.494 184.639 217.108 179.865 220.289 173.82L207.901 167.3ZM199.65 175.854C196.2 177.798 191.845 178.92 186.319 178.92V192.92C193.764 192.92 200.587 191.396 206.524 188.05L199.65 175.854ZM186.319 190.36C190.709 190.36 194.961 189.063 198.315 185.869L188.659 175.731C188.429 175.95 187.903 176.36 186.319 176.36V190.36ZM198.315 185.869C201.753 182.594 203.373 177.733 204.22 172.928L190.434 170.496C189.745 174.395 188.805 175.593 188.659 175.731L198.315 185.869ZM204.196 173.059C205.179 168.046 205.607 161.374 205.607 153.28H191.607C191.607 161.058 191.182 166.674 190.458 170.365L204.196 173.059ZM205.607 153.28C205.607 145.106 205.18 138.389 204.196 133.373L190.458 136.067C191.181 139.755 191.607 145.411 191.607 153.28H205.607ZM204.22 133.503C203.373 128.699 201.753 123.838 198.315 120.563L188.659 130.701C188.805 130.839 189.745 132.037 190.434 135.936L204.22 133.503ZM198.315 120.563C194.961 117.369 190.709 116.072 186.319 116.072V130.072C187.903 130.072 188.429 130.482 188.659 130.701L198.315 120.563ZM186.319 116.072C181.918 116.072 177.703 117.371 174.314 120.452L183.732 130.812C184.097 130.479 184.746 130.072 186.319 130.072V116.072ZM174.195 120.563C170.807 123.79 169.125 128.585 168.186 133.373L181.924 136.067C182.692 132.151 183.655 130.887 183.851 130.701L174.195 120.563ZM168.162 133.504C167.287 138.457 166.903 145.123 166.903 153.28H180.903C180.903 145.395 181.287 139.687 181.948 135.936L168.162 133.504ZM166.903 153.28C166.903 161.357 167.288 167.978 168.162 172.928L181.948 170.496C181.286 166.742 180.903 161.075 180.903 153.28H166.903ZM168.186 173.059C169.125 177.847 170.807 182.642 174.195 185.869L183.851 175.731C183.655 175.545 182.692 174.281 181.924 170.365L168.186 173.059ZM174.314 185.98C177.703 189.061 181.918 190.36 186.319 190.36V176.36C184.746 176.36 184.097 175.953 183.732 175.62L174.314 185.98ZM239.923 181.952L236.45 188.03L236.491 188.053L236.533 188.076L239.923 181.952ZM228.787 170.432L222.569 173.648L222.591 173.69L222.613 173.732L228.787 170.432ZM229.043 135.744L222.985 132.237L222.962 132.277L222.939 132.317L229.043 135.744ZM240.435 124.48L237.091 118.331L237.068 118.343L237.045 118.356L240.435 124.48ZM273.075 124.48L269.685 130.604L269.727 130.628L269.769 130.65L273.075 124.48ZM284.339 135.616L278.235 139.043L278.258 139.083L278.281 139.123L284.339 135.616ZM284.595 170.56L278.421 167.26L278.411 167.28L278.401 167.3L284.595 170.56ZM273.587 181.952L277.024 188.05L277.042 188.04L277.06 188.03L273.587 181.952ZM263.987 180.8L268.815 185.869L268.815 185.869L263.987 180.8ZM267.827 171.712L260.958 170.365L260.945 170.43L260.934 170.496L267.827 171.712ZM267.827 134.72L260.934 135.936L260.945 136.002L260.958 136.067L267.827 134.72ZM263.987 125.632L268.815 120.563L268.815 120.563L263.987 125.632ZM249.523 125.632L244.814 120.452L244.754 120.507L244.695 120.563L249.523 125.632ZM245.555 134.72L238.686 133.373L238.673 133.438L238.662 133.504L245.555 134.72ZM245.555 171.712L238.662 172.928L238.673 172.994L238.686 173.059L245.555 171.712ZM249.523 180.8L244.695 185.869L244.754 185.925L244.814 185.98L249.523 180.8ZM256.819 178.92C251.297 178.92 246.876 177.8 243.313 175.828L236.533 188.076C242.528 191.395 249.37 192.92 256.819 192.92V178.92ZM243.396 175.874C239.784 173.811 236.998 170.944 234.961 167.132L222.613 173.732C225.867 179.819 230.504 184.632 236.45 188.03L243.396 175.874ZM235.005 167.216C233.05 163.437 231.947 158.777 231.947 153.024H217.947C217.947 160.583 219.404 167.529 222.569 173.648L235.005 167.216ZM231.947 153.024C231.947 147.336 233.108 142.803 235.147 139.171L222.939 132.317C219.517 138.413 217.947 145.4 217.947 153.024H231.947ZM235.101 139.251C237.301 135.452 240.19 132.617 243.825 130.604L237.045 118.356C231.123 121.634 226.417 126.308 222.985 132.237L235.101 139.251ZM243.779 130.629C247.522 128.594 251.816 127.512 256.819 127.512V113.512C249.705 113.512 243.076 115.076 237.091 118.331L243.779 130.629ZM256.819 127.512C261.824 127.512 266.054 128.594 269.685 130.604L276.465 118.356C270.539 115.075 263.931 113.512 256.819 113.512V127.512ZM269.769 130.65C273.338 132.562 276.137 135.306 278.235 139.043L290.443 132.189C287.08 126.198 282.37 121.518 276.381 118.31L269.769 130.65ZM278.281 139.123C280.367 142.727 281.563 147.268 281.563 153.024H295.563C295.563 145.297 293.943 138.233 290.397 132.109L278.281 139.123ZM281.563 153.024C281.563 158.845 280.425 163.512 278.421 167.26L290.769 173.86C294.056 167.71 295.563 160.686 295.563 153.024H281.563ZM278.401 167.3C276.462 170.983 273.738 173.804 270.114 175.874L277.06 188.03C282.994 184.639 287.608 179.865 290.789 173.82L278.401 167.3ZM270.15 175.854C266.7 177.798 262.345 178.92 256.819 178.92V192.92C264.264 192.92 271.087 191.396 277.024 188.05L270.15 175.854ZM256.819 190.36C261.209 190.36 265.461 189.063 268.815 185.869L259.159 175.731C258.929 175.95 258.403 176.36 256.819 176.36V190.36ZM268.815 185.869C272.253 182.594 273.873 177.733 274.72 172.928L260.934 170.496C260.245 174.395 259.305 175.593 259.159 175.731L268.815 185.869ZM274.696 173.059C275.679 168.046 276.107 161.374 276.107 153.28H262.107C262.107 161.058 261.682 166.674 260.958 170.365L274.696 173.059ZM276.107 153.28C276.107 145.106 275.68 138.389 274.696 133.373L260.958 136.067C261.681 139.755 262.107 145.411 262.107 153.28H276.107ZM274.72 133.503C273.873 128.699 272.253 123.838 268.815 120.563L259.159 130.701C259.305 130.839 260.245 132.037 260.934 135.936L274.72 133.503ZM268.815 120.563C265.461 117.369 261.209 116.072 256.819 116.072V130.072C258.403 130.072 258.929 130.482 259.159 130.701L268.815 120.563ZM256.819 116.072C252.418 116.072 248.203 117.371 244.814 120.452L254.232 130.812C254.597 130.479 255.246 130.072 256.819 130.072V116.072ZM244.695 120.563C241.307 123.79 239.625 128.585 238.686 133.373L252.424 136.067C253.192 132.151 254.155 130.887 254.351 130.701L244.695 120.563ZM238.662 133.504C237.787 138.457 237.403 145.123 237.403 153.28H251.403C251.403 145.395 251.787 139.687 252.448 135.936L238.662 133.504ZM237.403 153.28C237.403 161.357 237.788 167.978 238.662 172.928L252.448 170.496C251.786 166.742 251.403 161.075 251.403 153.28H237.403ZM238.686 173.059C239.625 177.847 241.307 182.642 244.695 185.869L254.351 175.731C254.155 175.545 253.192 174.281 252.424 170.365L238.686 173.059ZM244.814 185.98C248.203 189.061 252.418 190.36 256.819 190.36V176.36C255.246 176.36 254.597 175.953 254.232 175.62L244.814 185.98ZM305.065 184.384L307.124 177.694L307.045 177.669L306.965 177.647L305.065 184.384ZM295.849 180.8L288.849 180.741L288.813 185.05L292.643 187.023L295.849 180.8ZM295.977 165.568V158.568H289.036L288.977 165.509L295.977 165.568ZM297.257 165.568L303.347 162.117L301.336 158.568H297.257V165.568ZM301.609 173.248L307.743 169.875L307.721 169.836L307.699 169.797L301.609 173.248ZM307.753 180.928L303.485 186.476L303.603 186.567L303.725 186.653L307.753 180.928ZM326.313 180.672L330.419 186.342L330.436 186.329L330.453 186.317L326.313 180.672ZM327.465 166.336L322.515 171.286L322.515 171.286L327.465 166.336ZM317.481 161.472L315.411 168.159L315.446 168.17L315.48 168.18L317.481 161.472ZM312.105 159.808L314.175 153.121L314.131 153.107L314.086 153.094L312.105 159.808ZM299.817 152.64L294.668 157.382L294.668 157.382L299.817 152.64ZM301.993 126.4L297.355 121.157L301.993 126.4ZM330.409 121.664L328.618 128.431L328.733 128.461L328.849 128.488L330.409 121.664ZM338.985 124.864L345.974 125.252L346.223 120.782L342.269 118.682L338.985 124.864ZM338.217 138.688V145.688H344.839L345.206 139.076L338.217 138.688ZM336.937 138.688L330.841 142.129L332.85 145.688H336.937V138.688ZM332.457 130.752L338.553 127.311L338.538 127.285L338.523 127.259L332.457 130.752ZM327.593 124.864L323.295 130.389L323.464 130.521L323.64 130.641L327.593 124.864ZM311.721 139.328L307.348 144.794L307.4 144.836L307.453 144.876L311.721 139.328ZM321.449 144.064L319.196 150.691L319.35 150.744L319.506 150.789L321.449 144.064ZM327.209 145.728L329.255 139.034L329.203 139.018L329.152 139.003L327.209 145.728ZM340.393 153.536L334.913 157.892L334.941 157.926L334.969 157.961L340.393 153.536ZM336.937 180.288L332.706 174.711L332.683 174.729L332.66 174.747L336.937 180.288ZM316.329 178.92C312.71 178.92 309.667 178.476 307.124 177.694L303.006 191.074C307.119 192.34 311.585 192.92 316.329 192.92V178.92ZM306.965 177.647C304.048 176.824 301.418 175.795 299.055 174.577L292.643 187.023C295.912 188.707 299.426 190.067 303.165 191.121L306.965 177.647ZM302.849 180.859L302.977 165.627L288.977 165.509L288.849 180.741L302.849 180.859ZM295.977 172.568H297.257V158.568H295.977V172.568ZM291.167 169.019L295.519 176.699L307.699 169.797L303.347 162.117L291.167 169.019ZM295.475 176.621C297.648 180.571 300.264 183.998 303.485 186.476L312.021 175.38C310.805 174.444 309.325 172.751 307.743 169.875L295.475 176.621ZM303.725 186.653C307.466 189.286 311.868 190.36 316.457 190.36V176.36C314.048 176.36 312.648 175.813 311.781 175.203L303.725 186.653ZM316.457 190.36C321.532 190.36 326.403 189.25 330.419 186.342L322.207 175.002C321.274 175.678 319.574 176.36 316.457 176.36V190.36ZM330.453 186.317C334.74 183.173 337.153 178.636 337.153 173.248H323.153C323.153 174.004 323.006 174.417 322.173 175.027L330.453 186.317ZM337.153 173.248C337.153 168.802 335.671 164.643 332.415 161.386L322.515 171.286C322.843 171.613 323.153 172.062 323.153 173.248H337.153ZM332.415 161.386C329.323 158.295 324.553 156.277 319.482 154.764L315.48 168.18C320.137 169.569 322.023 170.793 322.515 171.286L332.415 161.386ZM319.551 154.785L314.175 153.121L310.035 166.495L315.411 168.159L319.551 154.785ZM314.086 153.094C309.816 151.834 306.916 150.015 304.966 147.898L294.668 157.382C298.691 161.75 303.983 164.71 310.124 166.522L314.086 153.094ZM304.966 147.898C303.251 146.036 302.337 143.797 302.337 140.736H288.337C288.337 147.062 290.41 152.759 294.668 157.382L304.966 147.898ZM302.337 140.736C302.337 137.224 303.607 134.318 306.631 131.643L297.355 121.157C291.504 126.333 288.337 132.984 288.337 140.736H302.337ZM306.631 131.643C309.359 129.23 313.819 127.512 321.065 127.512V113.512C311.756 113.512 303.502 115.72 297.355 121.157L306.631 131.643ZM321.065 127.512C323.853 127.512 326.36 127.833 328.618 128.431L332.2 114.897C328.655 113.959 324.933 113.512 321.065 113.512V127.512ZM328.849 128.488C331.23 129.032 333.509 129.881 335.701 131.046L342.269 118.682C339 116.945 335.562 115.661 331.969 114.84L328.849 128.488ZM331.996 124.476L331.228 138.3L345.206 139.076L345.974 125.252L331.996 124.476ZM338.217 131.688H336.937V145.688H338.217V131.688ZM343.033 135.247L338.553 127.311L326.361 134.193L330.841 142.129L343.033 135.247ZM338.523 127.259C336.679 124.056 334.423 121.055 331.546 119.087L323.64 130.641C324.006 130.891 324.993 131.816 326.391 134.245L338.523 127.259ZM331.891 119.339C328.568 116.755 324.371 116.072 320.553 116.072V130.072C321.715 130.072 322.486 130.184 322.954 130.304C323.415 130.421 323.45 130.51 323.295 130.389L331.891 119.339ZM320.553 116.072C316.265 116.072 312.244 117.293 308.616 119.59L316.106 131.418C317.598 130.473 319.038 130.072 320.553 130.072V116.072ZM308.616 119.59C304.065 122.472 301.521 126.988 301.521 132.416H315.521C315.521 132.171 315.547 132.023 315.565 131.95C315.581 131.881 315.596 131.855 315.6 131.847C315.604 131.84 315.623 131.806 315.685 131.743C315.749 131.677 315.877 131.563 316.106 131.418L308.616 119.59ZM301.521 132.416C301.521 137.292 303.439 141.667 307.348 144.794L316.094 133.862C315.736 133.576 315.521 133.343 315.521 132.416H301.521ZM307.453 144.876C310.536 147.248 314.589 149.125 319.196 150.691L323.702 137.437C319.775 136.101 317.344 134.822 315.989 133.78L307.453 144.876ZM319.506 150.789L325.266 152.453L329.152 139.003L323.392 137.339L319.506 150.789ZM325.163 152.422C330.603 154.084 333.495 156.107 334.913 157.892L345.873 149.18C342.001 144.309 336.103 141.126 329.255 139.034L325.163 152.422ZM334.969 157.961C336.49 159.826 337.361 162.143 337.361 165.312H351.361C351.361 159.265 349.586 153.732 345.817 149.111L334.969 157.961ZM337.361 165.312C337.361 169.359 335.905 172.284 332.706 174.711L341.168 185.865C347.867 180.782 351.361 173.724 351.361 165.312H337.361ZM332.66 174.747C329.46 177.217 324.321 178.92 316.329 178.92V192.92C326.086 192.92 334.686 190.869 341.214 185.829L332.66 174.747ZM396.271 123.968L392.728 130.005L392.777 130.034L392.827 130.062L396.271 123.968ZM405.231 133.184L399.025 136.422L399.067 136.503L399.112 136.584L405.231 133.184ZM408.303 149.312L415.274 149.946L415.277 149.92L415.279 149.893L408.303 149.312ZM407.791 151.872V158.872H412.836L414.432 154.086L407.791 151.872ZM369.647 151.872V144.872H362.582L362.647 151.937L369.647 151.872ZM374.511 171.84L368.967 176.114L369.017 176.178L369.068 176.241L374.511 171.84ZM399.215 175.808L402.426 182.028L402.426 182.028L399.215 175.808ZM406.639 169.792L411.322 164.589L406.033 159.829L401.36 165.195L406.639 169.792ZM407.919 170.944L414.017 174.381L416.772 169.494L412.602 165.741L407.919 170.944ZM397.295 181.952L393.711 175.939L393.685 175.955L393.659 175.97L397.295 181.952ZM365.423 182.08L361.986 188.178L362.028 188.202L362.071 188.225L365.423 182.08ZM354.415 170.816L360.564 167.472L360.564 167.472L354.415 170.816ZM355.055 135.616L360.973 139.354L360.988 139.331L361.002 139.308L355.055 135.616ZM366.831 124.352L363.571 118.158L363.548 118.17L363.525 118.182L366.831 124.352ZM375.279 125.376L379.813 130.71L379.824 130.7L379.835 130.691L375.279 125.376ZM371.183 133.312L364.419 131.508L364.405 131.561L364.392 131.614L371.183 133.312ZM369.647 149.312L362.648 149.226L362.56 156.312H369.647V149.312ZM391.535 149.312V156.312H397.922L398.506 149.952L391.535 149.312ZM390.511 129.216L397.065 126.758L397.065 126.758L390.511 129.216ZM382.063 127.512C386.636 127.512 390.089 128.456 392.728 130.005L399.814 117.931C394.602 114.872 388.584 113.512 382.063 113.512V127.512ZM392.827 130.062C395.598 131.628 397.614 133.719 399.025 136.422L411.437 129.946C408.752 124.799 404.795 120.745 399.715 117.874L392.827 130.062ZM399.112 136.584C400.597 139.257 401.431 142.455 401.431 146.368H415.431C415.431 140.382 414.131 134.791 411.35 129.784L399.112 136.584ZM401.431 146.368C401.431 147.095 401.398 147.882 401.327 148.731L415.279 149.893C415.379 148.694 415.431 147.518 415.431 146.368H401.431ZM401.332 148.678C401.288 149.165 401.21 149.478 401.15 149.658L414.432 154.086C414.884 152.73 415.148 151.336 415.274 149.946L401.332 148.678ZM407.791 144.872H369.647V158.872H407.791V144.872ZM362.647 151.937C362.737 161.623 364.394 170.181 368.967 176.114L380.055 167.566C378.313 165.307 376.728 160.553 376.647 151.807L362.647 151.937ZM369.068 176.241C373.936 182.263 380.941 184.856 388.847 184.856V170.856C384.124 170.856 381.571 169.438 379.954 167.439L369.068 176.241ZM388.847 184.856C393.779 184.856 398.452 184.079 402.426 182.028L396.005 169.588C394.688 170.267 392.448 170.856 388.847 170.856V184.856ZM402.426 182.028C405.983 180.192 409.135 177.585 411.918 174.389L401.36 165.195C399.535 167.29 397.737 168.693 396.005 169.588L402.426 182.028ZM401.956 174.995L403.236 176.147L412.602 165.741L411.322 164.589L401.956 174.995ZM401.821 167.507C399.748 171.185 397.054 173.946 393.711 175.939L400.879 187.965C406.411 184.667 410.799 180.09 414.017 174.381L401.821 167.507ZM393.659 175.97C390.61 177.824 386.678 178.92 381.551 178.92V192.92C388.712 192.92 395.276 191.371 400.931 187.934L393.659 175.97ZM381.551 178.92C376.505 178.92 372.31 177.863 368.775 175.935L362.071 188.225C367.923 191.417 374.479 192.92 381.551 192.92V178.92ZM368.86 175.982C365.344 174 362.6 171.215 360.564 167.472L348.266 174.16C351.52 180.145 356.115 184.869 361.986 188.178L368.86 175.982ZM360.564 167.472C358.586 163.835 357.447 159.233 357.447 153.408H343.447C343.447 161.066 344.953 168.069 348.266 174.16L360.564 167.472ZM357.447 153.408C357.447 147.446 358.747 142.879 360.973 139.354L349.137 131.878C345.219 138.081 343.447 145.375 343.447 153.408H357.447ZM361.002 139.308C363.477 135.322 366.521 132.459 370.137 130.522L363.525 118.182C357.583 121.365 352.777 126.012 349.108 131.924L361.002 139.308ZM370.091 130.546C373.99 128.494 377.953 127.512 382.063 127.512V113.512C375.591 113.512 369.4 115.09 363.571 118.158L370.091 130.546ZM381.679 116.072C377.622 116.072 373.85 117.382 370.723 120.061L379.835 130.691C380.292 130.298 380.787 130.072 381.679 130.072V116.072ZM370.745 120.042C367.397 122.889 365.561 127.227 364.419 131.508L377.947 135.116C378.369 133.532 378.806 132.413 379.195 131.658C379.59 130.894 379.842 130.684 379.813 130.71L370.745 120.042ZM364.392 131.614C363.257 136.154 362.735 142.123 362.648 149.226L376.646 149.398C376.729 142.677 377.232 137.979 377.974 135.01L364.392 131.614ZM369.647 156.312H391.535V142.312H369.647V156.312ZM398.506 149.952C399.37 140.53 399.199 132.449 397.065 126.758L383.957 131.674C384.895 134.175 385.407 139.491 384.564 148.672L398.506 149.952ZM397.065 126.758C395.91 123.676 394.022 120.861 391.148 118.862C388.272 116.861 384.974 116.072 381.679 116.072V130.072C382.736 130.072 383.086 130.307 383.154 130.354C383.224 130.403 383.576 130.66 383.957 131.674L397.065 126.758ZM422.017 182.72L417.067 187.67L417.067 187.67L422.017 182.72ZM422.017 167.232L416.971 162.38L416.971 162.38L422.017 167.232ZM437.633 167.232L442.679 162.38L442.679 162.38L437.633 167.232ZM437.633 182.72L432.683 177.77L432.683 177.77L437.633 182.72ZM429.825 178.92C428.572 178.92 427.761 178.564 426.967 177.77L417.067 187.67C420.54 191.142 424.934 192.92 429.825 192.92V178.92ZM426.967 177.77C426.131 176.935 425.817 176.149 425.817 175.04H411.817C411.817 179.904 413.636 184.239 417.067 187.67L426.967 177.77ZM425.817 175.04C425.817 173.923 426.141 173.043 427.063 172.084L416.971 162.38C413.627 165.859 411.817 170.184 411.817 175.04H425.817ZM427.063 172.084C427.879 171.235 428.661 170.904 429.825 170.904V156.904C424.845 156.904 420.421 158.792 416.971 162.38L427.063 172.084ZM429.825 170.904C430.989 170.904 431.771 171.235 432.587 172.084L442.679 162.38C439.229 158.792 434.805 156.904 429.825 156.904V170.904ZM432.587 172.084C433.509 173.043 433.833 173.923 433.833 175.04H447.833C447.833 170.184 446.023 165.859 442.679 162.38L432.587 172.084ZM433.833 175.04C433.833 176.149 433.519 176.935 432.683 177.77L442.583 187.67C446.014 184.239 447.833 179.904 447.833 175.04H433.833ZM432.683 177.77C431.889 178.564 431.078 178.92 429.825 178.92V192.92C434.716 192.92 439.11 191.142 442.583 187.67L432.683 177.77Z" fill="white" mask="url(#path-3-outside-1_40_33)"/>
</svg>
